<?xml version="1.0" standalone="no"?>
<!DOCTYPE svg PUBLIC "-//W3C//DTD SVG 20010904//EN"
 "http://www.w3.org/TR/2001/REC-SVG-20010904/DTD/svg10.dtd">
<svg version="1.0" xmlns="http://www.w3.org/2000/svg"
 width="500.000000pt" height="500.000000pt" viewBox="0 0 500.000000 500.000000"
 preserveAspectRatio="xMidYMid meet">

<g transform="translate(0.000000,500.000000) scale(0.100000,-0.100000)"
fill="#ffffff" stroke="none">
<path d="M2305 4319 c-406 -42 -833 -247 -1131 -544 -357 -355 -547 -800 -547
-1280 0 -175 8 -237 54 -427 l32 -126 -26 -34 c-54 -73 -70 -118 -71 -203 0
-56 5 -89 16 -111 21 -38 83 -94 105 -94 12 0 14 -7 9 -32 -26 -122 -15 -187
41 -248 40 -45 96 -65 151 -55 34 6 84 46 94 75 4 11 34 -14 102 -82 284 -286
653 -474 1071 -544 158 -27 473 -24 639 5 435 77 812 284 1092 602 44 51 54
57 99 62 113 13 261 100 320 189 52 78 41 178 -21 207 -20 9 -24 18 -24 53 0
24 -9 62 -19 85 l-19 42 30 93 c100 311 115 638 43 937 -34 141 -78 260 -139
382 -355 707 -1120 1129 -1901 1048z m416 -84 c164 -23 217 -34 334 -72 510
-163 953 -573 1143 -1058 87 -223 117 -400 109 -652 -6 -189 -22 -287 -72
-438 -30 -89 -40 -104 -56 -88 -8 8 -3 34 16 94 55 175 69 269 69 474 1 158
-3 209 -22 300 -68 342 -220 623 -472 875 -107 108 -116 115 -210 186 -131 97
-338 205 -494 258 -212 72 -494 107 -699 87 -308 -30 -572 -123 -838 -296
-147 -96 -248 -187 -415 -378 -38 -43 -131 -188 -178 -278 -90 -170 -148 -352
-177 -550 -17 -125 -7 -378 22 -499 25 -108 29 -161 12 -167 -15 -5 -37 65
-64 201 -18 96 -20 133 -16 310 3 153 10 223 25 291 98 434 362 828 721 1078
254 178 508 276 841 326 91 14 310 12 421 -4z m-42 -281 c35 -8 85 -24 110
-36 37 -17 72 -22 188 -27 121 -6 145 -9 164 -26 34 -31 49 -78 49 -159 l0
-75 130 -3 c78 -2 130 -7 130 -13 0 -6 -52 -11 -130 -13 -130 -3 -130 -3 -130
-27 0 -13 -4 -26 -9 -29 -12 -8 -21 29 -21 84 0 59 -23 95 -49 78 -16 -10 -26
-5 -70 34 -56 51 -160 122 -167 116 -2 -3 21 -22 51 -43 77 -53 167 -152 220
-243 25 -42 45 -71 45 -64 0 16 375 17 386 1 14 -23 -27 -29 -203 -26 -101 1
-183 2 -183 2 0 0 9 -25 20 -55 10 -30 19 -47 19 -37 1 18 13 18 274 12 238
-6 303 -13 286 -29 -2 -2 -129 -5 -281 -7 -298 -4 -291 -3 -272 -53 5 -13 10
-14 20 -5 10 8 27 8 64 0 28 -6 81 -11 118 -11 135 0 262 -12 262 -25 0 -21
-26 -25 -167 -25 -139 0 -330 29 -344 52 -4 6 -10 31 -14 56 -9 61 -66 192
-109 251 -215 293 -589 375 -906 198 -142 -79 -268 -232 -316 -384 -47 -150
-13 -424 51 -415 11 2 27 4 35 5 8 1 27 10 42 21 22 14 26 22 18 36 -6 10 -10
25 -9 32 0 7 5 1 11 -14 5 -16 14 -28 20 -28 6 0 7 10 2 28 -5 15 -8 47 -8 72
1 32 -1 39 -7 25 -7 -18 -8 -18 -8 -2 -2 44 39 70 52 34 2 -7 3 -5 2 4 -1 9 1
23 6 30 6 10 9 5 9 -16 1 -28 2 -28 10 -8 8 20 12 22 34 11 14 -6 28 -19 31
-30 7 -20 45 -25 45 -5 0 8 2 9 8 1 5 -8 26 -2 70 19 59 28 62 32 63 66 l2 36
6 -35 c6 -31 3 -37 -24 -54 -16 -11 -104 -69 -195 -129 l-165 -110 -225 -18
c-374 -32 -421 -34 -520 -29 -76 4 -95 8 -95 20 0 12 18 15 90 17 202 5 420
24 431 39 6 8 17 15 25 16 52 5 -153 16 -333 17 -176 1 -218 4 -218 14 0 15
159 27 365 27 135 0 279 16 284 31 2 6 12 -6 22 -27 11 -22 17 -30 13 -19 -3
11 -8 43 -10 70 -10 102 14 91 -226 101 -133 6 -212 13 -211 19 3 13 207 27
335 23 l96 -3 7 50 c3 28 18 83 31 123 14 40 24 85 22 100 l-3 27 -115 5 c-67
3 -115 9 -115 15 0 6 48 12 115 15 l115 5 5 95 c3 52 9 102 13 110 17 36 51
45 187 51 118 5 146 10 222 38 137 50 276 58 427 25z m-29 -128 c104 -26 228
-90 270 -142 8 -9 -7 -1 -35 18 -130 92 -229 123 -395 122 -114 -1 -137 -6
-275 -59 -13 -5 -17 -5 -10 2 13 13 110 50 160 62 61 14 223 12 285 -3z m674
-82 c9 -3 16 -12 16 -20 0 -10 -15 -14 -55 -14 -41 0 -55 4 -55 14 0 9 13 16
33 19 17 2 35 5 39 5 3 1 13 -1 22 -4z m-1531 -19 c-4 -15 -115 -13 -121 3 -3
10 11 12 59 10 36 -2 63 -7 62 -13z m1196 -119 c-3 -3 -11 5 -18 17 -13 21
-12 21 5 5 10 -10 16 -20 13 -22z m-1181 -101 c-2 -13 -31 -16 -173 -20 -165
-4 -205 1 -191 24 5 7 66 11 187 11 157 0 180 -2 177 -15z m757 -49 c47 -20
45 -27 -2 -10 -84 29 -160 6 -204 -65 -16 -24 -29 -40 -29 -34 0 25 49 80 90
101 51 26 96 28 145 8z m-24 -26 c21 0 99 -73 99 -92 0 -7 -8 -1 -18 15 -20
32 -42 35 -66 8 -35 -39 -125 -35 -140 6 -6 14 -9 14 -26 -2 -11 -10 -20 -13
-20 -7 0 30 102 86 138 76 8 -2 22 -4 33 -4z m-550 -27 c-12 -20 -14 -14 -5
12 4 9 9 14 11 11 3 -2 0 -13 -6 -23z m687 -74 c6 -22 6 -39 1 -39 -5 0 -9 10
-9 23 0 13 -14 45 -30 73 l-31 49 30 -33 c16 -19 34 -51 39 -73z m-910 52 c4
-24 3 -24 -65 -18 -37 4 -157 7 -265 7 -168 0 -198 2 -198 15 0 12 31 15 198
18 337 5 326 6 330 -22z m207 -137 c0 -69 -3 -115 -7 -102 -11 42 -7 228 6
228 0 0 1 -57 1 -126z m395 51 c0 -25 -3 -45 -8 -45 -4 0 -6 20 -4 45 2 25 6
45 8 45 2 0 4 -20 4 -45z m663 25 c5 -19 1 -20 -96 -18 l-102 2 93 3 c72 3 92
7 92 18 0 21 7 18 13 -5z m117 -53 c68 -4 218 -35 360 -74 55 -16 80 -35 170
-138 62 -70 132 -165 128 -175 -2 -5 -51 50 -110 123 -59 73 -120 140 -136
149 -31 19 -240 73 -319 84 -61 8 -64 4 -84 -101 -7 -38 -15 -63 -16 -54 -2 9
3 45 11 80 20 88 15 92 -117 97 -90 4 -415 -11 -567 -25 -30 -3 -53 -3 -50 0
10 10 220 29 385 36 157 6 196 6 345 -2z m-723 -3 c-3 -3 -12 -4 -19 -1 -8 3
-5 6 6 6 11 1 17 -2 13 -5z m-668 -107 c-8 -6 -608 8 -614 15 -23 23 19 28
233 28 230 0 353 11 362 33 2 7 8 -7 14 -31 5 -23 7 -44 5 -45z m1289 76 c-21
-3 -57 -37 -138 -130 -61 -69 -109 -127 -108 -129 2 -1 61 -12 132 -24 l130
-21 29 21 c29 22 29 22 18 1 -14 -25 -50 -35 -99 -28 -20 3 -116 17 -212 31
-244 35 -245 35 -147 30 l88 -5 64 69 c36 38 88 97 116 131 52 61 52 61 103
60 29 -1 39 -4 24 -6z m-655 -10 c-7 -2 -21 -2 -30 0 -10 3 -4 5 12 5 17 0 24
-2 18 -5z m1497 -33 c30 -20 -14 -30 -138 -30 -96 0 -122 -3 -116 -12 4 -7 -7
0 -24 16 -18 17 -32 31 -32 33 0 8 297 1 310 -7z m-685 -75 c-3 -26 -8 -45
-11 -43 -2 3 -1 26 2 52 4 25 9 44 12 42 2 -3 1 -26 -3 -51z m220 16 c-4 -9
-11 -37 -17 -63 -6 -27 -15 -48 -20 -48 -18 0 -19 31 -4 84 13 42 20 54 32 49
9 -3 13 -12 9 -22z m19 -110 c-25 -107 -35 -131 -50 -131 -11 0 -12 5 -5 18 5
9 12 40 16 67 4 28 14 75 22 105 14 49 17 52 25 31 5 -15 3 -46 -8 -90z m399
69 c35 0 47 -4 47 -15 0 -12 -16 -15 -81 -15 -73 0 -80 -2 -74 -17 4 -12 -5
-7 -24 11 -40 38 -30 50 33 42 28 -3 72 -6 99 -6z m-286 -127 c-3 -2 -12 15
-22 39 -28 69 -27 78 0 19 14 -29 24 -55 22 -58z m-420 65 c-3 -7 -5 -2 -5 12
0 14 2 19 5 13 2 -7 2 -19 0 -25z m50 -5 c-3 -10 -5 -4 -5 12 0 17 2 24 5 18
2 -7 2 -21 0 -30z m187 -19 c3 -9 6 -25 5 -37 l0 -22 -9 23 c-5 12 -14 22 -20
22 -6 0 -9 4 -5 9 3 5 -3 12 -12 14 -12 3 -9 5 8 6 16 1 29 -5 33 -15z m-247
-16 c-3 -8 -6 -5 -6 6 -1 11 2 17 5 13 3 -3 4 -12 1 -19z m817 -7 c11 -17 -19
-29 -74 -31 -61 -3 -86 4 -94 26 -4 11 10 14 79 14 46 0 86 -4 89 -9z m-2809
-71 c-27 -12 -43 -12 -25 0 8 5 22 9 30 9 10 0 8 -3 -5 -9z m192 4 c-3 -3 -12
-4 -19 -1 -8 3 -5 6 6 6 11 1 17 -2 13 -5z m-44 -11 c-7 -2 -19 -2 -25 0 -7 3
-2 5 12 5 14 0 19 -2 13 -5z m-235 -25 c-60 -35 -85 -123 -63 -229 6 -25 4
-26 -30 -20 -39 7 -48 24 -15 29 12 2 24 10 27 18 8 22 -6 64 -22 64 -19 0
-19 19 0 26 8 4 24 26 34 50 18 40 69 84 96 84 6 0 -6 -10 -27 -22z m157 12
c-11 -5 -29 -9 -40 -9 l-20 0 20 9 c11 5 29 9 40 9 l20 0 -20 -9z m1966 -1
c16 -4 32 -2 38 4 19 19 24 -1 7 -28 -16 -24 -16 -25 9 -25 19 0 25 5 25 21 0
22 2 22 108 14 59 -4 135 -9 169 -11 35 -1 66 -5 70 -7 5 -3 49 -8 98 -11 152
-11 274 -28 290 -40 8 -6 18 -28 21 -48 l6 -36 -38 8 c-20 5 -105 12 -188 16
-83 3 -155 10 -161 14 -12 10 -14 10 -60 10 -47 0 -45 18 3 23 l37 4 -42 1
c-32 2 -43 -2 -43 -13 0 -17 -54 -19 -263 -8 l-127 6 -9 31 -9 31 -1 -32 -1
-33 -389 0 c-249 0 -392 4 -396 10 -4 6 43 10 132 10 137 0 139 0 139 23 0 32
-19 47 -63 47 -44 0 -152 -22 -216 -44 -30 -10 -54 -12 -73 -7 l-29 8 26 11
c118 47 257 61 604 59 165 -1 312 -4 326 -8z m772 -6 c-13 -2 -35 -2 -50 0
-16 2 -5 4 22 4 28 0 40 -2 28 -4z m-2826 -17 c-15 -7 -24 -15 -21 -19 4 -4
-7 -7 -24 -7 -18 0 -32 2 -32 5 0 8 64 33 85 33 16 0 14 -2 -8 -12z m2873 -6
c0 -11 -4 -20 -9 -20 -5 0 -7 9 -4 20 3 11 7 20 9 20 2 0 4 -9 4 -20z m-36 -9
c3 -4 -6 -6 -19 -3 -14 2 -25 6 -25 8 0 8 39 4 44 -5z m-2551 -8 c-46 -2 -120
-2 -165 0 -46 1 -9 3 82 3 91 0 128 -2 83 -3z m702 -12 c29 -6 -535 -3 -585 3
-14 2 106 3 265 3 160 0 303 -2 320 -6z m1921 -26 c5 -30 10 -35 35 -35 19 0
29 -5 29 -15 0 -8 -9 -15 -20 -15 -17 0 -20 -7 -20 -40 0 -33 3 -40 20 -40 11
0 20 -6 20 -14 0 -7 -9 -16 -20 -19 -15 -4 -20 -14 -20 -41 0 -32 3 -36 25
-36 16 0 25 -6 25 -15 0 -10 -10 -15 -32 -15 l-33 0 3 97 c3 76 -1 112 -16
161 -11 34 -16 62 -11 62 4 0 11 -16 15 -35z m-2861 -51 l20 -30 15 30 c29 60
110 40 127 -31 l9 -38 189 -7 c439 -16 425 -16 425 10 0 30 25 78 45 86 51 19
106 -19 120 -84 7 -34 -18 -97 -47 -114 -25 -15 -69 4 -93 40 l-20 31 -275 7
c-151 4 -291 9 -310 12 -31 4 -37 1 -52 -26 -16 -28 -22 -31 -55 -28 -34 3
-41 8 -60 48 -20 39 -23 41 -23 18 0 -25 -39 -68 -62 -68 -5 0 -23 13 -39 29
-23 23 -29 38 -29 71 0 63 14 82 58 78 28 -2 41 -10 57 -34z m-130 -133 c13
-31 13 -33 1 -17 -18 22 -36 104 -35 149 1 18 5 5 11 -32 5 -35 15 -80 23
-100z m1210 143 c24 -10 45 -58 45 -107 0 -102 -94 -126 -141 -37 -48 90 10
177 96 144z m552 -30 c-3 -3 -12 -4 -19 -1 -8 3 -5 6 6 6 11 1 17 -2 13 -5z
m-37 -9 c0 -2 -10 -9 -22 -15 -22 -11 -22 -10 -4 4 21 17 26 19 26 11z m148
-22 l47 -28 -60 -5 c-75 -6 -123 -35 -177 -106 -22 -30 -42 -54 -44 -54 -12 0
54 91 89 122 33 30 39 40 29 50 -17 17 -15 36 6 41 39 11 66 6 110 -20z m-198
-6 c0 -2 -10 -12 -22 -23 l-23 -19 19 23 c18 21 26 27 26 19z m-370 -128 c-7
-15 -18 -30 -27 -33 -10 -4 -8 2 6 20 15 19 22 43 23 83 l2 56 3 -49 c3 -27
-1 -61 -7 -77z m1505 85 c28 -18 32 -31 11 -31 -33 0 -78 -28 -106 -66 -17
-23 -30 -34 -30 -26 0 8 12 30 28 49 15 19 34 47 41 63 17 31 23 33 56 11z
m-881 -9 c33 -16 62 -55 76 -105 12 -42 -5 -38 -26 5 -21 45 -65 86 -106 102
l-33 11 28 1 c16 1 43 -6 61 -14z m-139 -28 c-25 -22 -47 -55 -62 -93 -18 -44
-22 -50 -18 -24 8 54 37 103 74 127 48 33 51 28 6 -10z m-1828 -29 c-3 -8 -6
-5 -6 6 -1 11 2 17 5 13 3 -3 4 -12 1 -19z m2895 -18 c23 -32 41 -139 32 -197
-7 -48 -41 -106 -66 -111 -8 -2 -29 9 -46 23 -36 30 -56 102 -50 178 4 53 33
127 49 127 4 0 0 -15 -10 -32 -41 -72 -34 -186 14 -234 21 -21 27 -23 45 -12
11 7 27 35 36 62 29 86 4 193 -50 217 -20 8 -19 9 3 6 13 -1 32 -13 43 -27z
m-2789 13 c-7 -2 -21 -2 -30 0 -10 3 -4 5 12 5 17 0 24 -2 18 -5z m145 -10
c-21 -2 -55 -2 -75 0 -21 2 -4 4 37 4 41 0 58 -2 38 -4z m1839 -15 c-3 -8 -6
-5 -6 6 -1 11 2 17 5 13 3 -3 4 -12 1 -19z m-1467 3 l85 -8 -90 0 c-49 -1
-128 2 -175 6 l-85 8 90 0 c50 1 128 -2 175 -6z m-603 -103 c9 -10 30 -20 49
-24 18 -3 43 -18 56 -32 15 -17 16 -21 4 -12 -12 10 -52 17 -113 20 -98 5
-125 21 -49 30 l44 5 -17 35 c-12 26 -23 36 -44 38 -38 5 -34 30 6 34 30 3 32
1 40 -37 5 -22 16 -48 24 -57z m318 82 c83 -5 251 -14 375 -20 124 -5 325 -15
447 -21 122 -6 238 -8 258 -5 19 4 35 3 35 -2 0 -17 -76 -41 -151 -48 -65 -5
-78 -4 -86 10 -8 14 -27 17 -105 18 -52 1 -100 -2 -106 -6 -15 -9 -310 13
-337 24 -18 9 -164 19 -497 35 -139 7 -143 5 -117 -48 10 -21 9 -21 -10 2 -12
13 -21 36 -21 52 l0 28 83 -5 c45 -2 150 -9 232 -14z m593 3 c-21 -2 -55 -2
-75 0 -21 2 -4 4 37 4 41 0 58 -2 38 -4z m801 -57 c-12 -65 -5 -122 20 -181
21 -46 67 -105 84 -105 7 0 0 11 -16 25 -25 24 -63 85 -53 85 2 0 14 -15 26
-34 39 -65 127 -71 175 -14 40 48 55 83 62 148 5 52 7 58 19 42 33 -43 5 -188
-49 -249 -45 -51 -88 -67 -135 -52 -60 20 -91 49 -125 118 -27 55 -32 76 -32
140 0 43 6 90 14 109 19 46 23 35 10 -32z m-591 47 c-21 -2 -57 -2 -80 0 -24
2 -7 4 37 4 44 0 63 -2 43 -4z m-894 -49 c12 -30 6 -35 -36 -32 -36 2 -44 7
-46 26 -3 20 1 22 36 22 27 0 42 -5 46 -16z m1610 -10 c9 -8 16 -20 16 -25 0
-5 9 -18 20 -29 12 -12 15 -20 8 -20 -7 0 -22 -17 -33 -38 -23 -42 -62 -54
-86 -26 -13 16 -12 16 9 3 21 -13 25 -12 43 10 26 31 24 43 -5 35 -19 -4 -26
-1 -31 16 -7 22 11 54 26 44 5 -3 9 -1 9 5 0 13 -37 24 -52 15 -9 -6 -9 -3 1
9 17 21 55 22 75 1z m976 -15 c15 -26 9 -51 -12 -55 -21 -3 -32 24 -16 43 9
11 9 16 -3 24 -11 7 -11 9 3 9 10 0 22 -9 28 -21z m185 -8 c-3 -6 13 -11 36
-13 24 -2 44 -8 46 -15 3 -8 -19 -12 -71 -15 -84 -3 -97 8 -43 35 39 19 40 19
32 8z m-1847 -35 l4 -29 -58 6 c-55 6 -74 17 -74 45 0 10 16 12 63 10 60 -3
62 -4 65 -32z m-1010 -4 c20 -30 11 -28 -19 4 -13 15 -18 25 -10 22 8 -2 21
-14 29 -26z m27 -44 c-11 -40 -48 -118 -56 -118 -5 0 0 15 10 33 10 17 24 49
31 70 12 39 26 52 15 15z m-60 -57 c-15 -31 -16 -31 -98 -31 -84 0 -115 9
-103 29 5 7 42 11 97 11 78 0 90 2 101 20 19 30 22 6 3 -29z m345 -1 c63 -5
270 -19 460 -30 l345 -20 28 32 28 33 -6 -37 c-5 -31 -2 -39 20 -56 15 -12 21
-23 15 -27 -5 -3 -10 -12 -10 -20 0 -10 10 -13 38 -10 31 4 33 3 12 -4 -32
-12 -261 -12 -320 -1 -34 6 -23 7 40 3 84 -5 85 -5 110 24 41 45 41 48 -3 50
-514 30 -928 60 -936 69 -7 7 55 5 179 -6z m2618 -7 c-3 -15 -16 -18 -81 -21
-72 -3 -77 -1 -77 18 0 18 6 20 81 20 71 0 80 -2 77 -17z m-420 -18 c-6 -6
-445 -61 -553 -69 -64 -5 -66 -4 -20 4 28 5 154 23 280 40 127 17 241 35 255
39 24 8 50 -2 38 -14z m-2582 -44 c-4 -5 0 -12 6 -14 8 -3 6 -6 -4 -6 -18 -1
-24 10 -11 22 9 10 15 8 9 -2z m16 -53 c-8 -8 -47 -14 -92 -17 -68 -3 -80 -1
-80 13 0 14 14 16 92 16 73 0 89 -3 80 -12z m2976 -5 c3 -9 -12 -13 -51 -13
-60 0 -87 7 -87 22 0 14 133 5 138 -9z m-2155 0 c-7 -2 -21 -2 -30 0 -10 3 -4
5 12 5 17 0 24 -2 18 -5z m936 -78 c62 -31 97 -107 86 -182 -12 -81 -116 -160
-184 -138 -43 13 -53 98 -18 159 28 50 51 65 75 50 18 -12 19 -26 7 -89 -8
-38 -7 -39 10 -25 21 17 45 70 45 99 0 10 -8 29 -19 42 -15 18 -27 22 -69 21
-106 -2 -232 -100 -232 -180 0 -37 12 -51 149 -170 77 -67 94 -100 94 -177 0
-106 -80 -221 -193 -274 -73 -34 -186 -37 -240 -5 -105 61 -105 186 0 276 39
34 97 58 139 58 19 0 18 -5 -20 -52 -23 -29 -51 -73 -62 -97 -19 -43 -19 -44
0 -70 48 -64 172 -12 227 96 34 67 15 108 -92 199 -103 87 -132 132 -132 199
0 29 7 69 15 89 33 78 128 156 224 183 54 15 150 9 190 -12z m1046 -25 c31
-34 15 -91 -78 -280 -47 -97 -95 -208 -107 -248 -35 -114 -15 -130 72 -59 43
35 54 50 60 83 30 179 221 313 320 225 36 -32 41 -76 15 -128 -39 -74 -142
-141 -199 -129 -29 6 -30 5 -23 -22 22 -90 107 -84 241 17 36 28 70 48 75 45
19 -12 6 -34 -49 -85 -145 -134 -289 -155 -358 -52 l-22 32 -18 -21 c-34 -38
-106 -78 -141 -78 -36 0 -83 36 -83 65 0 22 -7 19 -59 -24 -25 -21 -68 -52
-95 -67 -44 -26 -52 -37 -87 -116 -62 -141 -109 -198 -164 -198 -31 0 -55 38
-55 88 0 57 35 119 113 201 29 29 42 48 30 42 -54 -27 -103 2 -118 70 l-7 29
-36 -28 c-88 -69 -169 -83 -213 -36 -36 38 -32 133 9 232 26 61 29 74 16 79
-18 7 -47 60 -36 66 4 3 25 10 47 16 39 10 43 15 79 96 l38 85 49 0 c26 0 50
-4 54 -9 3 -5 -8 -43 -24 -83 -30 -76 -28 -87 14 -88 11 0 27 -5 35 -10 23
-15 -18 -50 -75 -65 l-48 -12 -38 -99 c-21 -54 -38 -114 -39 -131 0 -28 3 -33
24 -33 36 0 148 88 159 125 5 17 27 76 49 132 l40 102 43 7 c77 11 78 4 24
-136 -47 -121 -60 -180 -39 -180 17 0 69 80 127 195 55 110 66 123 113 124 58
1 57 -6 -20 -198 -40 -100 -70 -185 -66 -188 7 -8 105 58 133 90 11 12 27 51
37 87 26 99 92 273 147 388 48 99 50 102 83 102 20 0 40 -8 51 -20z m-2405
-26 c13 -12 3 -37 -77 -197 -137 -270 -185 -410 -180 -517 2 -29 -2 -36 -25
-44 -35 -12 -68 4 -94 47 -16 27 -20 58 -24 192 l-5 160 -61 -120 c-73 -143
-93 -194 -102 -260 -6 -44 -10 -50 -31 -50 -35 0 -64 45 -63 97 0 54 18 100
131 329 50 102 91 195 91 207 0 35 -30 27 -95 -26 -95 -76 -149 -157 -170
-255 -13 -64 -78 2 -79 80 -1 92 85 212 212 297 92 61 161 82 213 67 21 -6 44
-21 50 -33 19 -35 27 -147 20 -258 -4 -58 -7 -106 -6 -108 1 -1 43 80 93 180
108 219 123 240 160 232 15 -4 34 -13 42 -20z m2097 -66 l25 -15 -25 -7 c-14
-3 -29 -16 -33 -28 -6 -22 -7 -21 -26 5 -11 15 -26 27 -33 27 -7 0 1 15 18 33
27 27 33 29 40 16 5 -8 20 -22 34 -31z m-1381 27 c3 -8 15 -17 26 -21 19 -6
19 -6 -4 -22 -12 -9 -26 -20 -29 -25 -4 -5 -16 0 -28 12 -11 11 -27 21 -33 21
-7 0 -4 6 7 12 11 6 24 17 28 25 11 17 26 17 33 -2z m-519 -205 c63 -38 51
-135 -26 -202 -48 -43 -117 -71 -152 -64 -24 4 -29 2 -29 -13 0 -10 10 -31 22
-46 19 -24 26 -27 68 -23 30 3 64 16 97 38 44 29 53 40 68 89 9 31 33 93 52
138 33 76 38 83 69 89 35 6 64 -7 64 -31 0 -7 -13 -41 -29 -76 -35 -77 -53
-139 -41 -139 17 0 88 104 119 172 24 53 36 69 57 74 31 8 57 -5 62 -30 2 -9
-9 -47 -23 -84 -33 -81 -46 -130 -35 -137 18 -11 103 117 131 199 15 41 47 61
80 51 62 -20 28 -123 -97 -290 -123 -164 -191 -191 -225 -88 l-11 35 -47 -46
c-55 -54 -89 -60 -120 -20 -12 15 -21 35 -21 46 0 17 -5 16 -45 -12 -117 -81
-225 -77 -282 9 -30 44 -31 137 -4 198 42 92 159 183 236 183 17 0 44 -9 62
-20z m2178 -510 c10 -16 -47 -80 -155 -175 -373 -328 -847 -485 -1345 -445
-388 32 -696 147 -1000 375 -38 29 -87 71 -108 93 -32 33 -36 40 -22 46 11 4
31 -7 60 -31 66 -58 191 -146 290 -203 219 -127 442 -199 710 -231 153 -18
432 -6 575 24 344 74 634 228 888 472 48 46 90 84 94 85 4 0 10 -5 13 -10z
m-2356 -107 c2 -1 -7 -11 -20 -22 -22 -17 -25 -18 -45 -2 l-22 16 21 22 c20
22 21 22 41 6 12 -10 23 -19 25 -20z m235 -47 c8 -19 24 -37 37 -41 21 -7 21
-8 -10 -32 -17 -13 -31 -33 -31 -44 0 -29 -16 -23 -30 11 -7 17 -15 30 -19 30
-3 0 -12 4 -19 9 -10 6 -6 16 17 40 17 18 31 39 31 47 0 23 9 16 24 -20z m296
-51 c0 -8 -7 -15 -15 -15 -12 0 -15 -16 -15 -85 0 -50 -4 -85 -10 -85 -6 0
-10 35 -10 84 0 77 -2 84 -21 89 -33 9 -12 27 32 27 28 0 39 -4 39 -15z m50
-86 c0 -76 -3 -100 -12 -97 -9 3 -14 35 -16 101 -2 82 0 97 13 97 12 0 15 -17
15 -101z m66 64 l8 -38 5 35 c4 22 12 35 21 35 12 0 16 -15 17 -65 4 -121 -16
-166 -41 -93 -17 49 -26 50 -26 4 0 -30 -4 -41 -12 -39 -9 3 -14 35 -16 101
-3 90 -1 97 17 97 14 0 21 -10 27 -37z m144 22 c0 -8 -4 -15 -10 -15 -5 0 -10
-37 -12 -82 -2 -54 -7 -83 -15 -86 -10 -3 -13 18 -13 82 0 70 -3 86 -15 86 -8
0 -15 7 -15 15 0 11 11 15 40 15 29 0 40 -4 40 -15z m295 -5 c0 -9 -7 -14 -17
-12 -25 4 -23 -36 2 -68 26 -33 26 -76 -1 -90 -27 -15 -49 -6 -49 19 0 14 5
18 20 14 26 -7 26 13 0 52 -23 34 -26 75 -8 93 17 17 53 11 53 -8z m95 1 c14
-27 13 -154 -2 -169 -16 -16 -43 -15 -57 2 -17 20 -16 167 1 177 22 14 47 10
58 -10z m60 -61 c0 -47 4 -80 10 -80 6 0 10 33 10 80 0 64 3 80 15 80 12 0 15
-17 15 -89 0 -101 -11 -123 -55 -103 -24 11 -25 16 -25 102 0 73 3 90 15 90
12 0 15 -16 15 -80z m122 38 l13 -43 3 43 c5 73 27 45 30 -39 3 -77 -3 -119
-17 -119 -10 0 -31 46 -31 70 0 10 -5 22 -11 26 -7 4 -10 -3 -9 -17 4 -47 0
-79 -10 -79 -6 0 -10 40 -10 100 0 81 3 100 15 100 8 0 20 -18 27 -42z m140
25 c14 -12 18 -31 18 -80 0 -71 -20 -103 -65 -103 l-25 0 0 100 0 100 27 0
c14 0 35 -7 45 -17z m-581 -29 c10 -12 10 -20 1 -35 -15 -23 -15 -39 -2 -39 6
0 10 6 10 14 0 8 5 18 11 22 8 5 10 -3 5 -27 -4 -19 -7 -45 -7 -59 0 -21 -5
-25 -35 -27 -27 -1 -38 4 -51 23 -13 21 -14 29 -3 52 7 15 12 37 11 49 -1 13
0 27 4 33 9 15 41 12 56 -6z"/>
<path d="M2062 3821 c-33 -22 -78 -56 -100 -75 -35 -32 -43 -35 -66 -26 -18 6
-26 6 -26 -1 0 -6 -4 -8 -8 -5 -5 3 -10 -27 -11 -67 l-2 -72 49 65 c61 79 108
125 186 179 76 52 59 54 -22 2z"/>
<path d="M1889 3776 c18 -19 27 -23 32 -14 10 15 2 23 -31 33 l-25 7 24 -26z"/>
<path d="M3083 3782 c-7 -4 -8 -13 -4 -20 6 -9 12 -7 26 8 14 15 15 20 4 20
-8 0 -19 -4 -26 -8z"/>
<path d="M1791 3034 c0 -11 3 -14 6 -6 3 7 2 16 -1 19 -3 4 -6 -2 -5 -13z"/>
<path d="M2949 2213 c-13 -16 -12 -17 4 -4 16 13 21 21 13 21 -2 0 -10 -8 -17
-17z"/>
<path d="M2890 2190 l-35 -7 32 -2 c17 0 35 4 38 9 3 6 5 9 3 9 -2 -1 -19 -5
-38 -9z"/>
<path d="M4062 1715 c-42 -38 -78 -92 -68 -102 7 -8 74 46 97 79 11 15 19 36
17 45 -3 14 -11 10 -46 -22z"/>
<path d="M3248 1213 c-27 -30 -49 -83 -46 -106 3 -17 12 -5 37 46 33 70 37 91
9 60z"/>
<path d="M1602 1724 c-13 -9 -37 -34 -53 -57 -49 -67 -36 -77 29 -21 72 61 91
125 24 78z"/>
<path d="M2656 1064 c-14 -37 -4 -114 15 -114 5 0 9 29 9 65 0 62 -11 84 -24
49z"/>
<path d="M2980 1015 c0 -36 4 -65 9 -65 13 0 23 67 16 101 -11 51 -25 31 -25
-36z"/>
<path d="M2411 1044 c0 -11 3 -14 6 -6 3 7 2 16 -1 19 -3 4 -6 -2 -5 -13z"/>
<path d="M2390 966 c0 -8 5 -18 10 -21 6 -3 10 3 10 14 0 12 -4 21 -10 21 -5
0 -10 -6 -10 -14z"/>
</g>
</svg>
